<?xml version="1.0" encoding="UTF-8" standalone="no"?>
<svg
   height="445"
   version="1.1"
   width="459"
   id="svg92"
   sodipodi:docname="passivejob_enso_vectorized_full.svg"
   inkscape:version="1.2.2 (b0a8486541, 2022-12-01)"
   xmlns:inkscape="http://www.inkscape.org/namespaces/inkscape"
   xmlns:sodipodi="http://sodipodi.sourceforge.net/DTD/sodipodi-0.dtd"
   xmlns="http://www.w3.org/2000/svg"
   xmlns:svg="http://www.w3.org/2000/svg">
  <sodipodi:namedview
     id="namedview94"
     pagecolor="#ffffff"
     bordercolor="#666666"
     borderopacity="1.0"
     inkscape:showpageshadow="2"
     inkscape:pageopacity="0.0"
     inkscape:pagecheckerboard="0"
     inkscape:deskcolor="#d1d1d1"
     showgrid="false"
     inkscape:zoom="1.0534759"
     inkscape:cx="228.7665"
     inkscape:cy="323.69036"
     inkscape:window-width="1920"
     inkscape:window-height="1011"
     inkscape:window-x="0"
     inkscape:window-y="0"
     inkscape:window-maximized="1"
     inkscape:current-layer="svg92" />
  <defs
     id="defs2" />
  <path
     d="m 284,440 -1,1 h -1 l -1,1 h -3 l -1,1 h -4 l -1,1 h -7 l -1,1 -1,-1 -1,1 h -1 10 l 1,-1 h 3 l 1,-1 h 5 l 1,-1 h 2 v -1 l 1,-1 z"
     fill="#E2E8F0"
     id="path26" />
  <path
     d="m 296,435 -1,1 h -3 l -1,1 v 1 h 1 l 2,-2 h 1 z"
     fill="#E2E8F0"
     id="path28" />
  <path
     d="m 245,433 h 3 z"
     fill="#E2E8F0"
     id="path30" />
  <path
     d="m 218,427 h 1 z"
     fill="#E2E8F0"
     id="path32" />
  <path
     d="m 252,424 h 3 z"
     fill="#E2E8F0"
     id="path34" />
  <path
     d="m 226,413 v 1 h 1 l 1,1 h 4 l 1,1 h 21 l 1,-1 h 8 l 1,-1 h -1 l -1,1 h -19 l -1,1 h -7 l -1,-1 h -3 l -1,-1 h -3 z"
     fill="#E2E8F0"
     id="path36" />
  <path
     d="m 249,409 1,1 v -1 z"
     fill="#E2E8F0"
     id="path38" />
  <path
     d="m 232,407 h 2 z"
     fill="#E2E8F0"
     id="path40" />
  <path
     d="m 231,399 -1,1 h 2 v -1 z"
     fill="#E2E8F0"
     id="path42" />
  <path
     d="m 278,395 -1,1 h -1 l -1,1 h -2 l -1,1 h -5 v 2 l -1,1 -1,-1 h -2 l -1,1 h -2 l 1,1 -1,1 h -4 l -1,1 h -2 l -1,1 h -5 l -1,1 h -6 v 1 h 2 l 1,-1 1,1 h 1 l 1,-1 h 6 l 1,-1 h 4 l 1,-1 h 3 l 1,-1 h 5 v -1 l -1,-1 1,-1 h 3 l 1,-1 h 3 l 2,-2 h 1 l 1,-1 z"
     fill="#E2E8F0"
     id="path44" />
  <path
     d="m 254,395 -1,1 h -1 l -1,1 h -2 l -1,1 h -4 l -1,1 h -9 v 1 h 2 l 1,-1 h 8 l 1,-1 h 4 l 1,-1 h 3 l 1,-1 h 1 l 1,1 1,-1 h -2 l -1,-1 z"
     fill="#E2E8F0"
     id="path46" />
  <path
     d="M 287,394 Z"
     fill="#E2E8F0"
     id="path48" />
  <path
     d="m 274,392 -1,1 h -9 l -1,1 h -1 l -1,1 h 2 l 1,-1 h 5 l 1,-1 h 4 z"
     fill="#E2E8F0"
     id="path50" />
  <path
     d="m 285,389 -2,2 h -2 l -1,1 h 2 l 1,-1 h 3 l 1,-1 h 1 -1 l -1,-1 z"
     fill="#E2E8F0"
     id="path52" />
  <path
     d="m 342,351 h 1 z"
     fill="#E2E8F0"
     id="path54" />
  <path
     d="m 92,327 2,2 v -1 l -1,-1 z"
     fill="#E2E8F0"
     id="path56" />
  <path
     d="M 2,255 Z"
     fill="#E2E8F0"
     id="path58" />
  <path
     d="M 84,139 Z"
     fill="#E2E8F0"
     id="path60" />
  <path
     d="m 36,111 -1,1 v 2 l -1,1 v 1 l -1,1 h 1 l 1,-1 v -2 l 1,-1 v -1 l 1,-1 z"
     fill="#E2E8F0"
     id="path62" />
  <path
     d="m 41,104 v 1 l -1,1 v 1 -1 l 1,-1 z"
     fill="#E2E8F0"
     id="path64" />
  <path
     d="M 43,101 Z"
     fill="#E2E8F0"
     id="path66" />
  <path
     d="M 51,97 Z"
     fill="#E2E8F0"
     id="path68" />
  <path
     d="M 61,80 Z"
     fill="#E2E8F0"
     id="path70" />
  <path
     d="m 56,73 -2,2 v 1 l -4,4 v 1 l -1,1 v 1 l -2,2 v 1 l -2,2 v 1 l -6,6 v 2 l -1,1 -1,-1 -1,1 v 1 l -2,2 v 1 l -1,1 1,-1 h 1 l 1,1 -3,3 h -1 v 1 l -1,1 v 1 l -1,1 v 2 l -2,2 v 1 l -2,2 v 1 l -1,1 h -1 v 2 l -1,1 v 2 l -1,1 v 1 l -1,1 v 2 l -1,1 v 3 l -1,1 v 2 l 1,-1 v -1 l 1,-1 v -1 l 1,-1 v -1 l 1,-1 v -1 l 1,-1 v -1 l 1,-1 v -1 l 3,-3 -1,-1 2,-2 v -1 l 1,-1 v -1 l 1,-1 v -1 l 1,-1 v -1 l 3,-3 v -1 l 2,-2 v -1 l 2,-2 v -1 l -1,-1 1,-1 v -1 l 4,-4 v -1 l 2,-2 v -1 l 2,-2 v -1 l 2,-2 v -1 l 2,-2 v -1 l 3,-3 v -1 l 3,-3 v -1 z"
     fill="#E2E8F0"
     id="path72" />
  <path
     d="m 80,58 -7,7 v 1 l -3,3 h -1 l -1,1 v 1 l -3,3 v 1 l 1,-1 v -1 l 1,-1 h 1 l 1,-1 v -1 l 1,-1 h 1 V 68 L 81,58 Z"
     fill="#E2E8F0"
     id="path74" />
  <path
     d="m 75,58 -6,6 2,-2 h 1 l 3,-3 z"
     fill="#E2E8F0"
     id="path76" />
  <path
     d="m 72,58 -3,3 z"
     fill="#E2E8F0"
     id="path78" />
  <path
     d="m 106,35 -1,1 h -1 l -1,1 h -1 l -3,3 h -2 l -2,2 h -1 l -6,6 h 1 l 1,1 -1,1 h 1 l 3,-3 h 1 l 5,-5 h 1 l 2,-2 h 1 l 4,-4 h 1 v -1 z"
     fill="#E2E8F0"
     id="path80" />
  <path
     d="M 136,24 Z"
     fill="#E2E8F0"
     id="path82" />
  <path
     d="M 202,12 Z"
     fill="#E2E8F0"
     id="path84" />
  <path
     d="m 195,7 -1,1 h -3 l -1,1 h -5 l -1,1 h -2 l -1,1 h -2 3 l 1,-1 h 4 l 1,-1 h 3 l 1,-1 h 5 l 1,-1 h 2 z"
     fill="#E2E8F0"
     id="path86" />
  <path
     d="M 203,4 V 5 Z"
     fill="#E2E8F0"
     id="path88" />
  <path
     d="m 233,0 -1,1 h -14 l -1,1 h -4 l -1,1 h -4 l -1,1 h -1 l -1,1 h 2 l 1,-1 h 3 l 1,1 -1,1 h -2 l -1,1 h 4 l 1,-1 h 9 l 1,-1 h 24 l 1,1 v 1 l -1,1 -1,-1 -1,1 -1,-1 -1,1 h -2 l -1,-1 h -1 l -1,1 h -12 l -1,1 h -6 l -1,1 h -3 l -1,1 h -5 3 l 1,1 -1,1 h -4 l -1,1 h -5 l -1,1 h -5 l -1,1 h -4 l -1,1 h -4 l -1,1 h -4 l -1,1 h -3 l -1,1 h -3 l -1,1 h -3 l -1,1 h -2 l -1,1 h -3 l -1,1 h -1 l -1,1 h -2 l -1,1 h -2 l -1,1 h -1 l -1,1 h -2 l -1,1 h -1 l -1,1 h -1 l -1,1 h -2 l -1,1 h -2 l -1,1 h -2 l -2,2 h -1 l -1,1 h -1 l -1,1 h -1 l -1,1 h -1 l -2,2 h -1 l -1,1 h -1 l -1,1 h -1 l -1,1 h -1 l -1,1 h -1 l -2,2 h -1 l -2,2 h -1 l -4,4 h -1 l -4,4 h -1 l -1,1 h -1 l -1,1 h -1 l -1,1 -1,-1 -6,6 v 2 L 78,76 h -1 l -1,1 h -1 l -4,4 v 1 l -6,6 -1,-1 v -1 l 4,-4 v -1 l 6,-6 V 74 L 87,61 h 1 l 5,-5 h 1 l 6,-6 h 1 l 2,-2 h 1 l 2,-2 h 1 l 3,-3 h 1 l 2,-2 h 1 l 1,-1 h 1 l 2,-2 h 1 l 1,-1 h 1 l 2,-2 h 1 l 1,-1 h 1 l 1,-1 h 1 l 1,-1 h 1 l 2,-2 h 2 l 1,-1 h 1 l 1,-1 h 1 l 1,-1 h 1 l 1,-1 h 2 l 2,-2 h 1 l 1,-1 h 2 l 1,1 h 1 l 1,-1 h 2 l 1,-1 h 1 l 1,-1 h 2 l 1,-1 h 2 l 1,-1 h 3 l 1,-1 h 2 l 1,-1 h 2 l 1,-1 h 3 l 1,-1 h 2 l 1,-1 h 3 l 1,-1 h 3 l 1,-1 h 4 l 1,-1 h 4 l 1,-1 h 7 l 1,-1 h 1 -6 l -1,1 h -5 l -1,1 h -3 l -1,1 h -5 l -1,1 h -3 l -1,1 h -4 l -1,1 h -3 l -1,-1 1,-1 h 1 l 1,-1 h 1 -3 l -1,1 h -2 l -1,1 h -2 l -1,1 h -2 l 1,1 1,-1 h 3 l 1,1 -1,1 h -1 l -1,1 h -2 l -1,1 h -2 l -1,1 h -2 l -1,1 h -7 l -1,-1 -2,2 h -2 l -1,1 h -1 l -1,1 h -2 l -1,-1 1,-1 h 1 l 1,-1 h -1 l -1,-1 1,-1 h 1 -1 l -1,1 h -1 l -1,1 1,1 -1,1 h 1 l 1,1 -1,1 h -1 l -1,1 h -1 l -3,3 h -1 l -2,2 h -1 l -1,1 h -1 l -1,1 h -1 l -1,1 h -1 l -2,2 h -1 l -1,1 h -1 l -1,1 h -1 l -1,1 h -1 l -2,2 h -1 l -1,1 h -1 l -2,2 h -1 l -2,2 h -1 l -1,1 v 1 l -1,1 h -1 l -4,4 h -1 l -5,5 h -1 l -9,9 h -1 l -3,3 v 1 l -3,3 v 1 l -3,3 v 1 l -1,1 h -1 l -1,1 v 1 l -5,5 v 1 l -9,9 v 1 l -2,2 v 1 l -1,1 h -1 l -1,-1 1,-1 v -1 h -1 l -1,1 v 1 l -1,1 v 1 l -2,2 v 2 l 1,1 -2,2 v 1 l -1,1 -1,-1 v -1 l -1,1 v 1 l -2,2 v 1 l -1,1 v 1 l -1,1 v 1 l -1,1 v 2 l -1,1 -1,-1 v -2 l -3,3 v 2 l -1,1 v 1 l 2,-2 1,1 v 1 l -1,1 v 2 l -1,1 v 1 l -1,1 v 1 l -1,1 v 2 l -1,1 v 1 l -1,1 v 2 l -2,2 h -1 l -1,-1 v -1 l -1,1 v 1 l -2,2 h -1 l -1,1 -1,-1 v -1 l 2,-2 h 1 v -2 l 1,-1 v -1 l 1,-1 1,1 v 1 h 1 v -1 l 2,-2 v -3 2 l -3,3 -1,-1 v -1 l -1,1 h -2 l -1,1 v 1 l -1,1 v 1 l -1,1 v 2 l -1,1 v 1 h 1 l 1,-1 1,1 v 1 l -1,1 v 2 l -1,1 v 1 l -1,1 -1,-1 h -1 v 2 l -1,1 v 2 l -1,1 v 4 l -1,1 v 5 l -1,1 v 3 l -1,1 1,1 -1,1 v 3 l -1,1 v 3 l -1,1 v 4 l -1,1 v 4 l -1,1 v 9 l -1,1 v 1 l 1,1 -1,1 v 7 l -1,1 v 7 l -1,1 1,1 v 1 -2 l 1,-1 H 3 2 l -1,-1 1,-1 h 2 l 1,1 v 2 l -1,1 v 2 l 1,1 -1,1 h 1 l 1,1 v 5 l 1,1 v 3 l -1,1 1,1 v 2 l 1,1 v 1 l -1,1 v 3 l -1,1 -1,-1 v -5 l -1,-1 v -6 l -1,-1 v -1 l 1,-1 v -3 2 l -1,1 -2,-2 v -3 l 1,-1 H 1 v 1 l -1,1 1,1 v 7 l 1,1 v 6 l 1,1 v 5 l 1,1 v 5 l 1,1 v 4 l 1,1 v 3 l 1,1 v 1 l -1,1 v 1 l 1,1 v 5 l 1,1 v 4 l 1,1 v 1 l 1,1 v 4 l 1,1 v 3 l 1,1 v 1 l 1,1 v 2 l 1,1 v 1 l 1,1 v 1 l 1,1 v 4 l 4,4 -1,1 v 2 l 1,1 v 1 l 1,1 v 2 l 2,2 v 1 l 1,1 v 1 l 1,1 v 1 l 1,1 v 2 l 2,2 v 2 l 1,1 -1,1 v 2 h 1 l 1,1 v 2 l 3,3 v 1 l 2,2 v 1 l 2,2 v 1 l 3,3 v 1 l 3,3 v 2 l 1,1 h 1 l 2,2 v 1 h 1 l 1,1 -1,1 v 1 -1 l 1,-1 3,3 v 1 l 1,1 v 1 l 6,6 v 1 h 1 l 1,1 v 1 h 2 l 1,1 v 1 l 6,6 v 1 l 3,3 v 1 h 1 l 3,3 h 1 l 3,3 h 1 l 2,2 v 1 l 5,5 h 1 l 4,4 h 1 l 1,1 h 1 l 4,4 h 2 l 3,3 h 2 l 1,1 v 1 l 1,1 h 1 l 1,1 h 1 l 2,2 h 1 l 3,3 h 1 l 1,1 h 1 l 1,1 h 2 l 2,2 h 2 l 4,4 h 2 l 1,1 h 1 l 1,1 h 3 l 1,1 h 2 l 1,1 h 2 l 1,1 h 1 l 1,1 h 3 l 1,1 h 4 l 1,1 h 3 l 1,1 h 2 l 1,-1 h 9 l 1,1 h 1 l 2,-2 h 3 l 1,-1 1,1 h 5 l 1,-1 v -1 l 1,-1 h 1 l 2,-2 h 1 l 1,-1 1,1 h 1 l 1,-1 v -1 l 1,-1 h 1 v -1 l 3,-3 v -1 l 1,-1 v -3 l 2,-2 h 3 v -1 l 1,-1 v -5 l -1,-1 1,-1 v -2 l 2,-2 v -4 l -1,-1 v -5 l -1,-1 v -1 l -5,-5 1,-1 v -1 l -1,-1 v -1 h -1 l -4,-4 -1,1 -2,-2 h -1 l -2,-2 h -1 l -2,-2 h -1 l -1,-1 h -3 l -1,-1 v -1 h -1 l -1,-1 h -2 l -1,-1 h -3 l -1,-1 h -6 l -1,-1 h -1 l -2,-2 -1,1 h -1 l -2,-2 h -1 l -1,-1 h -1 l -1,-1 h -1 v 1 l -1,1 -1,-1 h -2 l -1,-1 h -2 l -1,-1 h -1 l -2,-2 h -1 l -1,-1 h -1 l -1,-1 h -1 l -1,-1 h -4 l -1,-1 -1,1 -2,-2 h -2 l -2,-2 h -1 l -1,-1 h -1 l -1,-1 h -1 l -1,-1 v -1 h -1 l -1,1 -1,-1 h -1 l -2,-2 h -1 l -3,-3 h -3 l -2,-2 h -1 l -2,-2 v -1 l -1,-1 h -1 l -3,-3 v -1 l 1,-1 1,1 -4,-4 v 1 h 1 l 2,2 -1,1 h -2 l -3,-3 v -1 l 1,-1 -1,-1 -1,1 -6,-6 v -2 l -1,-1 v -3 l 1,-1 1,1 v 1 l 1,1 1,-1 1,1 h 3 l 3,3 h 1 l -3,-3 v -1 l -1,-1 v -1 l -2,-2 v -1 l -1,-1 v -1 l -2,-2 v -2 l 1,-1 v -2 2 l -1,1 -2,-2 v -1 l -2,-2 v -1 l -3,-3 v -1 l -2,-2 v -4 l -1,-1 v -1 l -1,-1 v 1 l -1,1 -1,-1 v -1 l -1,-1 v -2 l -2,-2 v -2 l -1,-1 v -1 l -1,-1 v -2 l -1,-1 v -1 l -1,-1 v -2 l -1,-1 v -2 l -1,-1 v -1 l -1,-1 v -4 l -1,-1 v -1 l -1,-1 v -2 l -1,-1 1,-1 -1,-1 v -3 l -1,-1 v -4 l -1,-1 v -3 l -1,-1 v -2 5 l 1,1 v 3 l 1,1 v 4 l 1,1 v 2 l 1,1 v 3 l 1,1 v 3 l 1,1 v 2 l 1,1 v 2 l 1,1 v 3 l -1,1 -1,-1 v -1 1 l -1,1 -1,-1 v -2 l -1,-1 v -2 l -1,-1 v -5 l -1,-1 v -2 l -1,-1 1,-1 v -1 l -1,-1 v -2 l -1,-1 v -4 l -1,-1 v -1 l 1,-1 -1,-1 v -4 l -1,-1 v -5 l -1,-1 v -2 l -1,-1 v -1 l 2,-2 -1,-1 v -10 l 1,-1 v -2 l 1,-1 -1,-1 v -1 l 2,-2 h -2 l -1,-1 v -2 l 1,-1 -1,-1 v -1 l -1,-1 1,-1 v -3 l -1,-1 1,-1 v -5 l 1,-1 v -7 l 1,-1 v -5 l 1,-1 v -1 l 1,-1 1,1 v 5 l -1,1 v 3 l -1,1 v 1 l 1,1 -1,1 v 4 l -1,1 v 10 l 1,-1 v -3 l 1,-1 -1,-1 1,-1 v -3 l 1,-1 v -5 l 1,-1 v -2 l 1,-1 v -2 l 1,-1 v -2 l 1,-1 v -2 l 1,-1 v -3 l 1,-1 v -1 l 1,-1 v -1 l 1,-1 v -2 l 1,-1 v -3 l 2,-2 v -1 l 1,-1 v -3 l 1,-1 v -1 l 1,-1 v -1 l 1,-1 v -1 l 1,-1 v -1 l 1,-1 v -1 l 2,-2 -1,-1 v -1 l 2,-2 v -1 l 1,-1 h 1 l 2,-2 v -1 l 2,-2 v -1 l 1,-1 v -1 l 3,-3 v -1 l 1,-1 v -1 l 3,-3 v -1 l 2,-2 -1,-1 1,-1 v -1 l 1,-1 1,1 v 1 l 1,-1 v -1 l 1,-1 h 1 v -1 l 3,-3 v -1 l 2,-2 v -1 l 1,-1 h 2 v -1 l 3,-3 h 1 v -1 l 4,-4 h 1 v -1 l 1,-1 h 1 l 2,-2 h 1 l 4,-4 h 1 l 3,-3 h 1 l 1,-1 h 1 l 1,-1 h 1 l 1,-1 h 1 l 1,-1 h 1 l 1,-1 h 1 l 2,-2 h 1 l 1,-1 h 1 l 1,-1 h 1 l 1,-1 h 1 l 1,-1 h 1 l 1,-1 h 1 l 1,-1 h 2 l 1,-1 h 2 l 1,-1 h 2 l 1,-1 h 1 l 1,-1 h 2 l 1,-1 h 1 l 1,-1 h 2 l 1,-1 h 3 l 1,-1 h 2 l 1,-1 h 3 l 1,-1 h 2 l 1,-1 h 5 l 1,-1 h 4 l 1,-1 h 3 l 1,1 1,-1 h 1 l 1,-1 h 1 l 1,1 -2,2 h 2 l 1,-1 h 2 l 2,-2 h 6 l 2,-2 h 4 l 1,1 h 1 l 1,-1 1,1 h 1 l 1,1 h 1 l 1,-1 h 1 l 1,-1 h 1 l 1,1 v 1 h 1 v -1 l 1,-1 1,1 h 2 l 1,1 h 6 l 1,1 h 10 l 1,1 h 4 l 1,1 h 3 l 1,1 h 3 l 1,1 h 3 l 1,1 h 3 l 1,1 h 2 l 1,1 h 2 l 1,1 h 1 l 1,1 h 2 l 1,1 h 2 l 1,1 h 2 l 1,1 h 2 l 1,1 h 1 l 1,1 h 1 l 1,1 h 1 l 1,1 h 1 l 1,1 h 1 l 1,1 h 2 l 3,3 h 1 l 1,1 h 1 l 1,1 h 1 l 2,2 h 1 l 1,1 h 1 l 2,2 h 1 l 4,4 v 1 h 1 l 3,3 h 1 l 1,1 h 2 l 17,17 v 1 l 6,6 v 1 l 2,2 v 1 l 2,2 v 1 l 3,3 v 1 l 1,1 v 1 l 3,3 v 1 l 1,1 v 1 l 1,1 v 1 l 1,1 v 1 l 1,1 v 1 l 1,1 v 1 l 1,1 v 1 l 1,1 v 1 l 1,1 v 2 l -1,1 -1,-1 v -1 l -1,-1 v -1 l -1,-1 v 1 l 1,1 v 1 l 2,2 v 3 l 1,1 v 2 l 1,1 v 2 l 1,1 v 1 l 1,1 v 1 l 1,1 v -1 l -1,-1 v -1 l -1,-1 v -2 l -1,-1 v -2 l -1,-1 v -1 l -1,-1 v -2 l 1,-1 2,2 v 1 l 1,1 v 2 l 1,1 v 2 l 1,1 v 1 l 1,1 v 3 l 1,1 v 2 l 1,1 v 1 l 1,1 v 1 l 1,1 v 4 l 1,1 v 3 l 1,1 v 9 l 1,1 v 4 l 1,-1 1,1 v 7 l 1,1 -1,1 v 4 l 1,1 v 3 l 1,1 -1,1 v 16 l -1,1 v 9 l -1,1 v 3 l -1,1 -1,-1 v -17 12 l -1,1 1,1 v 1 l -1,1 v 4 l 1,1 v 1 l 1,1 v 2 l -1,1 -1,-1 v -1 l -1,1 v 5 l -1,1 v 4 l -1,1 v 1 l 1,1 -2,2 v 2 l -1,1 v 2 l -1,1 v 3 l -1,1 v 2 l -1,1 v 1 l -1,1 v 3 l -1,1 v 2 l -1,1 v 1 l -1,1 v 1 l -1,1 v 1 l -1,1 v 2 l -1,1 v 1 l -1,1 v 1 l -1,1 v 1 l -1,1 v 2 l -2,2 v 1 l -2,2 v 1 l -3,3 v 1 l -2,2 v 1 l -3,3 v 1 l -3,3 v 1 l -4,4 v 1 l -2,2 h -1 l -1,1 v 1 l -5,5 v 1 l -1,1 h -1 l -1,1 h -1 v 2 l -6,6 h -1 l -1,-1 -1,1 1,-1 1,1 v 1 l -3,3 h -2 l -9,9 h -1 l -1,-1 v -1 l 1,-1 h 1 l 1,-1 h -1 l -2,2 h -1 l -3,3 v 1 l 1,1 -2,2 h -1 l -1,1 h -1 l -1,1 h -1 l -1,1 h -1 l -1,1 h -1 l -1,1 h -1 l -2,2 h -1 l -1,1 h -1 l -2,2 h -1 1 l 1,-1 h 1 l 1,-1 h 1 l 1,-1 h 4 l 1,-1 h 1 l 2,-2 h 2 l 2,-2 h 1 l 1,-1 h 1 l 1,-1 h 1 l 1,1 -3,3 h -1 l -2,2 h -1 l -2,2 h -1 l -1,1 h -1 l -1,1 h -1 l -1,1 h -1 l -1,1 h -1 l -2,2 h -1 l -1,1 h -2 l -1,1 h -1 l -1,1 h -1 l -1,1 h -3 l -1,1 1,1 v 1 l -1,1 h -2 l -1,1 h -1 l -1,1 h -2 2 l 1,1 -1,1 h -1 l -1,1 h -4 l 1,1 -1,1 h -2 l -1,1 h -2 l -1,-1 1,-1 h -2 l -1,1 h -2 l -1,1 1,1 h 3 l 1,1 -1,1 h -3 l -1,1 h -3 l -1,1 h -7 l -2,2 h -1 l -1,1 v 1 h 10 l 1,-1 h 6 l 1,-1 h 2 l 1,-1 h 4 l 1,-1 h 7 l 1,-1 h 3 l 1,1 -1,1 h -1 l -1,1 h -1 l -1,1 h -2 l -1,1 h -2 l -1,1 h -3 l -1,1 h -3 l -1,1 h -2 2 l 1,1 -1,1 h -2 l -1,1 h -1 l -1,-1 1,-1 -1,1 h -2 l -1,1 h -2 l -1,1 h -1 l -1,1 h -5 l -1,1 h -5 l -1,1 h -15 l -1,-1 h -4 v 1 h 10 l 1,1 h 6 l 1,-1 1,1 h 1 l 1,-1 h 14 l 1,1 -2,2 h -4 l -1,1 h -5 l -1,1 h -11 l -1,-1 h -2 l 1,1 h 1 l 1,1 -1,1 h -6 v 1 h 1 l 1,1 h 4 v -1 l 1,-1 1,1 h 2 l 1,1 h 2 l 1,-1 h 1 l 1,1 h 2 l 1,1 h 11 l 1,1 h 1 v -1 l 1,-1 1,1 h 5 l 1,-1 h 4 l 1,-1 h 4 l 1,-1 h 4 l 1,-1 h 3 l 1,-1 h 3 l 1,-1 h 4 l 1,-1 h 2 l 1,-1 h 1 l 1,-1 h 2 l 1,1 -1,1 h -1 l -1,1 h -1 l -1,1 h -1 l -1,1 h -2 l -1,1 h -2 l -1,1 h -2 l -1,1 h -2 l -1,1 h -2 l -1,1 -1,-1 h -7 l -1,1 h -2 l -1,1 h -3 l -1,1 h -4 5 l 1,1 -1,1 h -5 l -1,1 h -1 6 l 1,-1 h 3 l 1,-1 h 3 l 1,-1 h 3 l 1,-1 h 2 l 1,-1 h 3 l 1,-1 h 3 l 1,-1 h 1 l 1,-1 h 2 l 1,-1 h 2 l 1,-1 h 2 l 1,-1 h 1 l 1,-1 h 2 l 1,-1 h 1 l 1,-1 h 1 l 1,-1 h 1 l 1,-1 h 2 l 1,-1 h 2 l 1,1 -1,1 h -1 l -1,1 h -2 l -1,1 h -1 l -2,2 h -1 l -1,1 h -2 v 1 h 2 l 1,-1 h 1 l 1,-1 h 1 l 1,-1 h 1 l 1,-1 h 1 l 1,-1 h 1 l 1,-1 h 1 l 1,-1 h 1 l 1,-1 h 2 l 1,-1 h 1 l 1,-1 h 1 l 1,-1 h 1 l 1,-1 h 2 l 1,-1 h 1 l 1,1 -2,2 h -1 l -1,1 h -1 l -1,1 h -1 l -2,2 h -1 l -1,1 h -1 l -1,1 h -1 l -2,2 h -2 l -1,-1 v 1 l -1,1 h -3 l -2,2 h -1 l -1,1 v 1 l -1,1 h -2 l -2,2 h -3 l -1,1 h -1 l -1,1 h -2 l -1,1 h -1 l -1,1 h -2 l -1,1 h -1 l -1,1 h -3 l -1,1 h -2 l -2,2 h 3 l 1,-1 h 2 l 1,-1 h 4 l 1,-1 h 2 l 1,-1 h 4 l 1,-1 h 4 l 1,-1 h 1 l 1,-1 h 2 l 1,-1 h 1 l 1,-1 h 2 l 1,-1 h 1 l 1,-1 h 2 l 1,-1 h 1 l 1,-1 h 1 l 1,-1 h 1 l 1,-1 h 2 l 1,-1 h 1 l 1,-1 h 1 l 1,-1 h 1 l 1,-1 h 2 l 1,-1 h 1 l 3,-3 h 2 l 2,-2 h 1 l 2,-2 h 1 l 3,-3 h 1 l 4,-4 h 1 l 4,-4 1,1 v 1 l 7,-7 -1,-1 3,-3 1,1 h 1 l 1,-1 v -1 l 8,-8 1,1 -1,-1 3,-3 v -1 l 1,-1 h 1 l 1,-1 h 1 l 4,-4 v -1 l 3,-3 v -1 l 6,-6 h 1 v -1 l 1,-1 v -1 l 2,-2 v -1 l 3,-3 v -1 l 3,-3 v -1 l 1,-1 h 1 v -1 l 1,-1 v -1 l 1,-1 v -1 l 1,-1 v -1 l 2,-2 v -1 l 1,-1 v -1 l 1,-1 v -1 l 1,-1 v -1 l 1,-1 v -2 l 1,-1 v -1 l 1,-1 v -1 l 1,-1 v -1 l 1,-1 v -2 l 2,-2 v -1 l 1,-1 v -1 l 1,-1 v -1 l 1,-1 v -2 l 1,-1 v -1 l 1,-1 v -2 l 1,-1 v -1 l 1,-1 v -4 l 1,-1 v -4 l 2,-2 v -1 l 1,-1 v -4 l 1,-1 v -4 l 1,-1 v -2 l 1,-1 v -3 l 1,-1 v -2 l 1,-1 v -7 l 1,-1 v -5 l 1,-1 v -7 l 1,-1 v -6 l 1,-1 v -1 l -1,-1 1,-1 v -4 l 1,-1 v -2 l -1,-1 v -6 l 1,-1 v -11 l 1,-1 -1,-1 v -4 l -1,-1 v -3 l 1,-1 -1,-1 v -9 l -1,-1 v -4 l -1,-1 1,-1 -1,-1 v -1 l 1,-1 -1,-1 v -6 l -1,-1 v -3 l -1,-1 v -3 l -1,-1 1,-1 v -1 l -1,-1 v -1 l -1,-1 v -2 l -1,-1 v -1 1 l -1,1 -1,-1 v -2 l 1,-1 v -1 l -2,-2 v -2 l -1,-1 v -2 l -1,-1 v -1 l -1,-1 v -2 l -1,-1 v -2 l -1,-1 v -1 l -1,-1 v -1 l -1,-1 v -3 l -1,-1 v -1 l -1,-1 v -1 l -1,-1 v -1 l -1,-1 v -1 l -2,-2 v -2 l -1,-1 v -1 l -1,-1 v -1 l -1,-1 v -1 l -1,-1 v -1 l -2,-2 v -1 l -1,-1 v -1 l -1,-1 v -1 l -2,-2 v -1 l -1,-1 v -1 l -3,-3 v -1 l -2,-2 v -1 l -2,-2 v -1 l -2,-2 -1,1 -1,-1 v -1 l -1,-1 h -1 l -1,-1 v -1 l -2,-2 v -1 l -3,-3 v -1 l -3,-3 v -1 h -1 l -1,-1 v -2 l -1,-1 h -1 l -1,-1 v -1 h -1 l -1,1 -1,-1 v -1 l -2,-2 v -1 l -1,-1 v -1 l -3,-3 h -1 l -3,-3 h -1 l -7,-7 h -1 l -1,-1 -1,1 -2,-2 h -1 l -1,-1 v -1 h -1 l -3,-3 h -1 l -2,-2 h -1 l -2,-2 h -1 l -2,-2 h -1 l -2,-2 h -1 l -3,-3 h -2 l -2,-2 h -1 l -1,-1 h -1 l -1,-1 h -2 l -3,-3 h -1 l -1,-1 h -2 l -1,-1 h -1 l -2,-2 h -2 l -1,-1 h -1 l -1,-1 h -1 l -1,-1 h -1 l -1,-1 h -2 l -1,-1 h -3 l -1,-1 h -1 l -1,-1 h -1 l -1,-1 h -2 l -1,-1 h -2 l -1,-1 h -2 l -1,-1 h -3 l -1,-1 h -2 l -1,-1 h -2 l -1,-1 h -5 l -1,-1 h -2 l -1,-1 h -5 l -1,-1 v 1 h 2 l 1,1 h 3 l 1,1 h 3 l 1,1 h 3 l 1,1 -1,1 h -4 l -1,-1 h -3 l -1,-1 h -8 l -1,-1 h -1 l -1,-1 h -2 L 264,4 V 3 h -3 l -1,-1 -1,1 h -3 l -1,-1 h -1 l -1,-1 -1,1 h -1 l -1,-1 h -8 l -1,-1 -1,1 -1,-1 -1,1 -1,-1 z"
     fill="#E2E8F0"
     id="path90" />
</svg>
